<svg xmlns="http://www.w3.org/2000/svg" viewBox="0 0 500 600">
  <g fill="currentColor">
    <!-- Fork and Knife in Circle -->
    <path d="M250 100c-82.8 0-150 67.2-150 150s67.2 150 150 150 150-67.2 150-150-67.2-150-150-150zm0 270c-66.2 0-120-53.8-120-120s53.8-120 120-120 120 53.8 120 120-53.8 120-120 120z"/>
    <!-- Fork -->
    <path d="M215 170l-25-25c-2-2-2-5 0-7l10-10c2-2 5-2 7 0l25 25c2 2 2 5 0 7l-10 10c-2 2-5 2-7 0zm35-35l-25-25c-2-2-2-5 0-7l10-10c2-2 5-2 7 0l25 25c2 2 2 5 0 7l-10 10c-2 2-5 2-7 0z"/>
    <!-- Knife -->
    <path d="M285 170l25-25c2-2 2-5 0-7l-10-10c-2-2-5-2-7 0l-25 25c-2 2-2 5 0 7l10 10c2 2 5 2 7 0zm-35-35l25-25c2-2 2-5 0-7l-10-10c-2-2-5-2-7 0l-25 25c-2 2-2 5 0 7l10 10c2 2 5 2 7 0z"/>
    <!-- Circular Lines -->
    <path d="M250 180c-38.7 0-70 31.3-70 70s31.3 70 70 70 70-31.3 70-70-31.3-70-70-70zm0 120c-27.6 0-50-22.4-50-50s22.4-50 50-50 50 22.4 50 50-22.4 50-50 50z"/>
  </g>
  <!-- Text -->
  <text x="250" y="500" text-anchor="middle" font-family="Arial Black, sans-serif" font-size="72" font-weight="900" fill="currentColor">
    DINE2DAY
  </text>
</svg>